<svg aria-hidden="true" style="position: absolute; width: 0; height: 0; overflow: hidden;" version="1.1" xmlns="http://www.w3.org/2000/svg" xmlns:xlink="http://www.w3.org/1999/xlink">
<defs>
<symbol id="icon-fiverr" viewBox="0 0 32 32">
<path fill="#1dbf73" style="fill: var(--color1, #1dbf73)" d="M18.185 15.904h-1.272c0.080-0.344 0.288-0.656 0.712-0.656 0.328 0 0.56 0.304 0.56 0.656zM32.001 16c0 8.836-7.164 16-16 16s-16-7.164-16-16 7.164-16 16-16 16 7.164 16 16zM8.289 13.040c0 0.397 0.323 0.72 0.72 0.72s0.72-0.323 0.72-0.72-0.323-0.72-0.72-0.72-0.72 0.323-0.72 0.72zM10.313 17.6h-0.56v-3.368h-3.288v-0.216c0-0.424 0.424-0.432 0.64-0.432 0.248 0 0.36 0.024 0.36 0.024v-1.168c0 0-0.224-0.032-0.528-0.032-0.688 0-1.96 0.192-1.96 1.648v0.184h-0.6v1.080h0.6v2.28h-0.56v1.080h2.704v-1.080h-0.656v-2.28h1.8v2.28h-0.56v1.080h2.608zM14.865 15.312h0.496v-1.080h-2.36v1.080h0.4l-0.512 1.6c-0.096 0.264-0.12 0.584-0.12 0.584h-0.032c0 0-0.024-0.32-0.12-0.584l-0.512-1.6h0.4v-1.080h-2.36v1.080h0.496l1.232 3.36h1.76zM19.729 16.272c0-1.232-0.744-2.144-2.064-2.144-1.432 0-2.312 1.016-2.312 2.32 0 1.184 0.856 2.328 2.44 2.328 1.2 0 1.912-0.624 1.912-0.624l-0.544-1.032c0 0-0.592 0.424-1.248 0.424-0.472 0-0.92-0.248-1.032-0.816h2.816c-0.008-0.008 0.032-0.312 0.032-0.456zM23.697 14.176c0 0-0.088-0.016-0.176-0.016-0.68-0.008-1.24 0.488-1.424 1.096v0h-0.016c0 0 0.016-0.088 0.016-0.224v-0.232c0-0.408-0.224-0.568-0.632-0.568h-1.4v1.080h0.416c0.12 0 0.192 0.072 0.192 0.192v2.096h-0.6v1.080h2.696v-1.080h-0.6v-0.648c0-0.808 0.4-1.336 1.224-1.336 0.184 0 0.304 0.024 0.304 0.024zM27.641 15.64v-1.464c0 0-0.088-0.016-0.176-0.016-0.672-0.008-1.232 0.488-1.424 1.096v0h-0.016c0 0 0.016-0.088 0.016-0.224v-0.232c0-0.408-0.224-0.568-0.632-0.568h-1.4v1.080h0.416c0.12 0 0.192 0.072 0.192 0.192v2.096h-0.6v1.080h2.696v-1.080h-0.6v-0.648c0-0.808 0.4-1.336 1.224-1.336 0.184 0 0.304 0.024 0.304 0.024z"></path>
</symbol>
<symbol id="icon-home3" viewBox="0 0 32 32">
<path d="M32 19l-6-6v-9h-4v5l-6-6-16 16v1h4v10h10v-6h4v6h10v-10h4z"></path>
</symbol>
<symbol id="icon-profile" viewBox="0 0 32 32">
<path d="M27 0h-24c-1.65 0-3 1.35-3 3v26c0 1.65 1.35 3 3 3h24c1.65 0 3-1.35 3-3v-26c0-1.65-1.35-3-3-3zM26 28h-22v-24h22v24zM8 18h14v2h-14zM8 22h14v2h-14zM10 9c0-1.657 1.343-3 3-3s3 1.343 3 3c0 1.657-1.343 3-3 3s-3-1.343-3-3zM15 12h-4c-1.65 0-3 0.9-3 2v2h10v-2c0-1.1-1.35-2-3-2z"></path>
</symbol>
<symbol id="icon-folder-open" viewBox="0 0 32 32">
<path d="M26 30l6-16h-26l-6 16zM4 12l-4 18v-26h9l4 4h13v4z"></path>
</symbol>
<symbol id="icon-compass" viewBox="0 0 32 32">
<path d="M17 32c-0.072 0-0.144-0.008-0.217-0.024-0.458-0.102-0.783-0.507-0.783-0.976v-15h-15c-0.469 0-0.875-0.326-0.976-0.783s0.129-0.925 0.553-1.123l30-14c0.381-0.178 0.833-0.098 1.13 0.199s0.377 0.749 0.199 1.13l-14 30c-0.167 0.358-0.524 0.577-0.906 0.577zM5.508 14h11.492c0.552 0 1 0.448 1 1v11.492l10.931-23.423-23.423 10.931z"></path>
</symbol>
<symbol id="icon-meter2" viewBox="0 0 32 32">
<path d="M16 0c-8.837 0-16 7.163-16 16s7.163 16 16 16 16-7.163 16-16-7.163-16-16-16zM9.464 26.067c0.347-0.957 0.536-1.99 0.536-3.067 0-3.886-2.463-7.197-5.913-8.456 0.319-2.654 1.508-5.109 3.427-7.029 2.267-2.266 5.28-3.515 8.485-3.515s6.219 1.248 8.485 3.515c1.92 1.92 3.108 4.375 3.428 7.029-3.45 1.26-5.913 4.57-5.913 8.456 0 1.077 0.189 2.11 0.536 3.067-1.928 1.258-4.18 1.933-6.536 1.933s-4.608-0.675-6.536-1.933zM17.242 20.031c0.434 0.109 0.758 0.503 0.758 0.969v2c0 0.55-0.45 1-1 1h-2c-0.55 0-1-0.45-1-1v-2c0-0.466 0.324-0.86 0.758-0.969l0.742-14.031h1l0.742 14.031z"></path>
</symbol>
<symbol id="icon-sphere" viewBox="0 0 32 32">
<path d="M15 2c-8.284 0-15 6.716-15 15s6.716 15 15 15c8.284 0 15-6.716 15-15s-6.716-15-15-15zM23.487 22c0.268-1.264 0.437-2.606 0.492-4h3.983c-0.104 1.381-0.426 2.722-0.959 4h-3.516zM6.513 12c-0.268 1.264-0.437 2.606-0.492 4h-3.983c0.104-1.381 0.426-2.722 0.959-4h3.516zM21.439 12c0.3 1.28 0.481 2.62 0.54 4h-5.979v-4h5.439zM16 10v-5.854c0.456 0.133 0.908 0.355 1.351 0.668 0.831 0.586 1.625 1.488 2.298 2.609 0.465 0.775 0.867 1.638 1.203 2.578h-4.852zM10.351 7.422c0.673-1.121 1.467-2.023 2.298-2.609 0.443-0.313 0.895-0.535 1.351-0.668v5.854h-4.852c0.336-0.94 0.738-1.803 1.203-2.578zM14 12v4h-5.979c0.059-1.38 0.24-2.72 0.54-4h5.439zM2.997 22c-0.533-1.278-0.854-2.619-0.959-4h3.983c0.055 1.394 0.224 2.736 0.492 4h-3.516zM8.021 18h5.979v4h-5.439c-0.3-1.28-0.481-2.62-0.54-4zM14 24v5.854c-0.456-0.133-0.908-0.355-1.351-0.668-0.831-0.586-1.625-1.488-2.298-2.609-0.465-0.775-0.867-1.638-1.203-2.578h4.852zM19.649 26.578c-0.673 1.121-1.467 2.023-2.298 2.609-0.443 0.312-0.895 0.535-1.351 0.668v-5.854h4.852c-0.336 0.94-0.738 1.802-1.203 2.578zM16 22v-4h5.979c-0.059 1.38-0.24 2.72-0.54 4h-5.439zM23.98 16c-0.055-1.394-0.224-2.736-0.492-4h3.516c0.533 1.278 0.855 2.619 0.959 4h-3.983zM25.958 10h-2.997c-0.582-1.836-1.387-3.447-2.354-4.732 1.329 0.636 2.533 1.488 3.585 2.54 0.671 0.671 1.261 1.404 1.766 2.192zM5.808 7.808c1.052-1.052 2.256-1.904 3.585-2.54-0.967 1.285-1.771 2.896-2.354 4.732h-2.997c0.504-0.788 1.094-1.521 1.766-2.192zM4.042 24h2.997c0.583 1.836 1.387 3.447 2.354 4.732-1.329-0.636-2.533-1.488-3.585-2.54-0.671-0.671-1.261-1.404-1.766-2.192zM24.192 26.192c-1.052 1.052-2.256 1.904-3.585 2.54 0.967-1.285 1.771-2.896 2.354-4.732h2.997c-0.504 0.788-1.094 1.521-1.766 2.192z"></path>
</symbol>
<symbol id="icon-facebook1" viewBox="0 0 32 32">
<path d="M19 6h5v-6h-5c-3.86 0-7 3.14-7 7v3h-4v6h4v16h6v-16h5l1-6h-6v-3c0-0.542 0.458-1 1-1z"></path>
</symbol>
</defs>
</svg>
